<svg xmlns="http://www.w3.org/2000/svg" version="1.1" xmlns:xlink="http://www.w3.org/1999/xlink" xmlns:svgjs="http://svgjs.dev/svgjs" viewBox="0 0 800 800"><defs><linearGradient gradientTransform="rotate(270)" x1="50%" y1="0%" x2="50%" y2="100%" id="sssquiggly-grad"><stop stop-color="hsl(184, 74%, 44%)" stop-opacity="1" offset="0%"></stop><stop stop-color="hsl(332, 87%, 70%)" stop-opacity="1" offset="100%"></stop></linearGradient></defs><g stroke-width="4.5" stroke="url(#sssquiggly-grad)" fill="none" stroke-linecap="round" transform="matrix(1,0,0,1,-5,-187.48762130737305)"><path d="M10,10C28.75,10.833333333333334,60.416666666666664,18.166666666666668,100,14C139.58333333333334,9.833333333333332,158.33333333333331,-19.583333333333336,200,-10C241.66666666666669,-0.4166666666666661,258.3333333333333,59.791666666666664,300,60C341.6666666666667,60.208333333333336,358.3333333333333,-8.166666666666666,400,-9C441.6666666666667,-9.833333333333334,458.3333333333333,62.458333333333336,500,56C541.6666666666666,49.541666666666664,558.3333333333334,-38.333333333333336,600,-40C641.6666666666666,-41.666666666666664,658.3333333333334,39.875,700,48C741.6666666666666,56.125,779.1666666666666,9.208333333333332,800,-1"></path><path d="M10,10C28.75,10.833333333333334,60.416666666666664,18.166666666666668,100,14C139.58333333333334,9.833333333333332,158.33333333333331,-19.583333333333336,200,-10C241.66666666666669,-0.4166666666666661,258.3333333333333,59.791666666666664,300,60C341.6666666666667,60.208333333333336,358.3333333333333,-8.166666666666666,400,-9C441.6666666666667,-9.833333333333334,458.3333333333333,62.458333333333336,500,56C541.6666666666666,49.541666666666664,558.3333333333334,-38.333333333333336,600,-40C641.6666666666666,-41.666666666666664,658.3333333333334,39.875,700,48C741.6666666666666,56.125,779.1666666666666,9.208333333333332,800,-1" transform="matrix(1,0,0,1,0,1155)"></path><path d="M10,10C28.75,10.833333333333334,60.416666666666664,18.166666666666668,100,14C139.58333333333334,9.833333333333332,158.33333333333331,-19.583333333333336,200,-10C241.66666666666669,-0.4166666666666661,258.3333333333333,59.791666666666664,300,60C341.6666666666667,60.208333333333336,358.3333333333333,-8.166666666666666,400,-9C441.6666666666667,-9.833333333333334,458.3333333333333,62.458333333333336,500,56C541.6666666666666,49.541666666666664,558.3333333333334,-38.333333333333336,600,-40C641.6666666666666,-41.666666666666664,658.3333333333334,39.875,700,48C741.6666666666666,56.125,779.1666666666666,9.208333333333332,800,-1" transform="matrix(1,0,0,1,0,1100)"></path><path d="M10,10C28.75,10.833333333333334,60.416666666666664,18.166666666666668,100,14C139.58333333333334,9.833333333333332,158.33333333333331,-19.583333333333336,200,-10C241.66666666666669,-0.4166666666666661,258.3333333333333,59.791666666666664,300,60C341.6666666666667,60.208333333333336,358.3333333333333,-8.166666666666666,400,-9C441.6666666666667,-9.833333333333334,458.3333333333333,62.458333333333336,500,56C541.6666666666666,49.541666666666664,558.3333333333334,-38.333333333333336,600,-40C641.6666666666666,-41.666666666666664,658.3333333333334,39.875,700,48C741.6666666666666,56.125,779.1666666666666,9.208333333333332,800,-1" transform="matrix(1,0,0,1,0,1045)"></path><path d="M10,10C28.75,10.833333333333334,60.416666666666664,18.166666666666668,100,14C139.58333333333334,9.833333333333332,158.33333333333331,-19.583333333333336,200,-10C241.66666666666669,-0.4166666666666661,258.3333333333333,59.791666666666664,300,60C341.6666666666667,60.208333333333336,358.3333333333333,-8.166666666666666,400,-9C441.6666666666667,-9.833333333333334,458.3333333333333,62.458333333333336,500,56C541.6666666666666,49.541666666666664,558.3333333333334,-38.333333333333336,600,-40C641.6666666666666,-41.666666666666664,658.3333333333334,39.875,700,48C741.6666666666666,56.125,779.1666666666666,9.208333333333332,800,-1" transform="matrix(1,0,0,1,0,990)"></path><path d="M10,10C28.75,10.833333333333334,60.416666666666664,18.166666666666668,100,14C139.58333333333334,9.833333333333332,158.33333333333331,-19.583333333333336,200,-10C241.66666666666669,-0.4166666666666661,258.3333333333333,59.791666666666664,300,60C341.6666666666667,60.208333333333336,358.3333333333333,-8.166666666666666,400,-9C441.6666666666667,-9.833333333333334,458.3333333333333,62.458333333333336,500,56C541.6666666666666,49.541666666666664,558.3333333333334,-38.333333333333336,600,-40C641.6666666666666,-41.666666666666664,658.3333333333334,39.875,700,48C741.6666666666666,56.125,779.1666666666666,9.208333333333332,800,-1" transform="matrix(1,0,0,1,0,935)"></path><path d="M10,10C28.75,10.833333333333334,60.416666666666664,18.166666666666668,100,14C139.58333333333334,9.833333333333332,158.33333333333331,-19.583333333333336,200,-10C241.66666666666669,-0.4166666666666661,258.3333333333333,59.791666666666664,300,60C341.6666666666667,60.208333333333336,358.3333333333333,-8.166666666666666,400,-9C441.6666666666667,-9.833333333333334,458.3333333333333,62.458333333333336,500,56C541.6666666666666,49.541666666666664,558.3333333333334,-38.333333333333336,600,-40C641.6666666666666,-41.666666666666664,658.3333333333334,39.875,700,48C741.6666666666666,56.125,779.1666666666666,9.208333333333332,800,-1" transform="matrix(1,0,0,1,0,880)"></path><path d="M10,10C28.75,10.833333333333334,60.416666666666664,18.166666666666668,100,14C139.58333333333334,9.833333333333332,158.33333333333331,-19.583333333333336,200,-10C241.66666666666669,-0.4166666666666661,258.3333333333333,59.791666666666664,300,60C341.6666666666667,60.208333333333336,358.3333333333333,-8.166666666666666,400,-9C441.6666666666667,-9.833333333333334,458.3333333333333,62.458333333333336,500,56C541.6666666666666,49.541666666666664,558.3333333333334,-38.333333333333336,600,-40C641.6666666666666,-41.666666666666664,658.3333333333334,39.875,700,48C741.6666666666666,56.125,779.1666666666666,9.208333333333332,800,-1" transform="matrix(1,0,0,1,0,825)"></path><path d="M10,10C28.75,10.833333333333334,60.416666666666664,18.166666666666668,100,14C139.58333333333334,9.833333333333332,158.33333333333331,-19.583333333333336,200,-10C241.66666666666669,-0.4166666666666661,258.3333333333333,59.791666666666664,300,60C341.6666666666667,60.208333333333336,358.3333333333333,-8.166666666666666,400,-9C441.6666666666667,-9.833333333333334,458.3333333333333,62.458333333333336,500,56C541.6666666666666,49.541666666666664,558.3333333333334,-38.333333333333336,600,-40C641.6666666666666,-41.666666666666664,658.3333333333334,39.875,700,48C741.6666666666666,56.125,779.1666666666666,9.208333333333332,800,-1" transform="matrix(1,0,0,1,0,770)"></path><path d="M10,10C28.75,10.833333333333334,60.416666666666664,18.166666666666668,100,14C139.58333333333334,9.833333333333332,158.33333333333331,-19.583333333333336,200,-10C241.66666666666669,-0.4166666666666661,258.3333333333333,59.791666666666664,300,60C341.6666666666667,60.208333333333336,358.3333333333333,-8.166666666666666,400,-9C441.6666666666667,-9.833333333333334,458.3333333333333,62.458333333333336,500,56C541.6666666666666,49.541666666666664,558.3333333333334,-38.333333333333336,600,-40C641.6666666666666,-41.666666666666664,658.3333333333334,39.875,700,48C741.6666666666666,56.125,779.1666666666666,9.208333333333332,800,-1" transform="matrix(1,0,0,1,0,715)"></path><path d="M10,10C28.75,10.833333333333334,60.416666666666664,18.166666666666668,100,14C139.58333333333334,9.833333333333332,158.33333333333331,-19.583333333333336,200,-10C241.66666666666669,-0.4166666666666661,258.3333333333333,59.791666666666664,300,60C341.6666666666667,60.208333333333336,358.3333333333333,-8.166666666666666,400,-9C441.6666666666667,-9.833333333333334,458.3333333333333,62.458333333333336,500,56C541.6666666666666,49.541666666666664,558.3333333333334,-38.333333333333336,600,-40C641.6666666666666,-41.666666666666664,658.3333333333334,39.875,700,48C741.6666666666666,56.125,779.1666666666666,9.208333333333332,800,-1" transform="matrix(1,0,0,1,0,660)"></path><path d="M10,10C28.75,10.833333333333334,60.416666666666664,18.166666666666668,100,14C139.58333333333334,9.833333333333332,158.33333333333331,-19.583333333333336,200,-10C241.66666666666669,-0.4166666666666661,258.3333333333333,59.791666666666664,300,60C341.6666666666667,60.208333333333336,358.3333333333333,-8.166666666666666,400,-9C441.6666666666667,-9.833333333333334,458.3333333333333,62.458333333333336,500,56C541.6666666666666,49.541666666666664,558.3333333333334,-38.333333333333336,600,-40C641.6666666666666,-41.666666666666664,658.3333333333334,39.875,700,48C741.6666666666666,56.125,779.1666666666666,9.208333333333332,800,-1" transform="matrix(1,0,0,1,0,605)"></path><path d="M10,10C28.75,10.833333333333334,60.416666666666664,18.166666666666668,100,14C139.58333333333334,9.833333333333332,158.33333333333331,-19.583333333333336,200,-10C241.66666666666669,-0.4166666666666661,258.3333333333333,59.791666666666664,300,60C341.6666666666667,60.208333333333336,358.3333333333333,-8.166666666666666,400,-9C441.6666666666667,-9.833333333333334,458.3333333333333,62.458333333333336,500,56C541.6666666666666,49.541666666666664,558.3333333333334,-38.333333333333336,600,-40C641.6666666666666,-41.666666666666664,658.3333333333334,39.875,700,48C741.6666666666666,56.125,779.1666666666666,9.208333333333332,800,-1" transform="matrix(1,0,0,1,0,550)"></path><path d="M10,10C28.75,10.833333333333334,60.416666666666664,18.166666666666668,100,14C139.58333333333334,9.833333333333332,158.33333333333331,-19.583333333333336,200,-10C241.66666666666669,-0.4166666666666661,258.3333333333333,59.791666666666664,300,60C341.6666666666667,60.208333333333336,358.3333333333333,-8.166666666666666,400,-9C441.6666666666667,-9.833333333333334,458.3333333333333,62.458333333333336,500,56C541.6666666666666,49.541666666666664,558.3333333333334,-38.333333333333336,600,-40C641.6666666666666,-41.666666666666664,658.3333333333334,39.875,700,48C741.6666666666666,56.125,779.1666666666666,9.208333333333332,800,-1" transform="matrix(1,0,0,1,0,495)"></path><path d="M10,10C28.75,10.833333333333334,60.416666666666664,18.166666666666668,100,14C139.58333333333334,9.833333333333332,158.33333333333331,-19.583333333333336,200,-10C241.66666666666669,-0.4166666666666661,258.3333333333333,59.791666666666664,300,60C341.6666666666667,60.208333333333336,358.3333333333333,-8.166666666666666,400,-9C441.6666666666667,-9.833333333333334,458.3333333333333,62.458333333333336,500,56C541.6666666666666,49.541666666666664,558.3333333333334,-38.333333333333336,600,-40C641.6666666666666,-41.666666666666664,658.3333333333334,39.875,700,48C741.6666666666666,56.125,779.1666666666666,9.208333333333332,800,-1" transform="matrix(1,0,0,1,0,440)"></path><path d="M10,10C28.75,10.833333333333334,60.416666666666664,18.166666666666668,100,14C139.58333333333334,9.833333333333332,158.33333333333331,-19.583333333333336,200,-10C241.66666666666669,-0.4166666666666661,258.3333333333333,59.791666666666664,300,60C341.6666666666667,60.208333333333336,358.3333333333333,-8.166666666666666,400,-9C441.6666666666667,-9.833333333333334,458.3333333333333,62.458333333333336,500,56C541.6666666666666,49.541666666666664,558.3333333333334,-38.333333333333336,600,-40C641.6666666666666,-41.666666666666664,658.3333333333334,39.875,700,48C741.6666666666666,56.125,779.1666666666666,9.208333333333332,800,-1" transform="matrix(1,0,0,1,0,385)"></path><path d="M10,10C28.75,10.833333333333334,60.416666666666664,18.166666666666668,100,14C139.58333333333334,9.833333333333332,158.33333333333331,-19.583333333333336,200,-10C241.66666666666669,-0.4166666666666661,258.3333333333333,59.791666666666664,300,60C341.6666666666667,60.208333333333336,358.3333333333333,-8.166666666666666,400,-9C441.6666666666667,-9.833333333333334,458.3333333333333,62.458333333333336,500,56C541.6666666666666,49.541666666666664,558.3333333333334,-38.333333333333336,600,-40C641.6666666666666,-41.666666666666664,658.3333333333334,39.875,700,48C741.6666666666666,56.125,779.1666666666666,9.208333333333332,800,-1" transform="matrix(1,0,0,1,0,330)"></path><path d="M10,10C28.75,10.833333333333334,60.416666666666664,18.166666666666668,100,14C139.58333333333334,9.833333333333332,158.33333333333331,-19.583333333333336,200,-10C241.66666666666669,-0.4166666666666661,258.3333333333333,59.791666666666664,300,60C341.6666666666667,60.208333333333336,358.3333333333333,-8.166666666666666,400,-9C441.6666666666667,-9.833333333333334,458.3333333333333,62.458333333333336,500,56C541.6666666666666,49.541666666666664,558.3333333333334,-38.333333333333336,600,-40C641.6666666666666,-41.666666666666664,658.3333333333334,39.875,700,48C741.6666666666666,56.125,779.1666666666666,9.208333333333332,800,-1" transform="matrix(1,0,0,1,0,275)"></path><path d="M10,10C28.75,10.833333333333334,60.416666666666664,18.166666666666668,100,14C139.58333333333334,9.833333333333332,158.33333333333331,-19.583333333333336,200,-10C241.66666666666669,-0.4166666666666661,258.3333333333333,59.791666666666664,300,60C341.6666666666667,60.208333333333336,358.3333333333333,-8.166666666666666,400,-9C441.6666666666667,-9.833333333333334,458.3333333333333,62.458333333333336,500,56C541.6666666666666,49.541666666666664,558.3333333333334,-38.333333333333336,600,-40C641.6666666666666,-41.666666666666664,658.3333333333334,39.875,700,48C741.6666666666666,56.125,779.1666666666666,9.208333333333332,800,-1" transform="matrix(1,0,0,1,0,220)"></path><path d="M10,10C28.75,10.833333333333334,60.416666666666664,18.166666666666668,100,14C139.58333333333334,9.833333333333332,158.33333333333331,-19.583333333333336,200,-10C241.66666666666669,-0.4166666666666661,258.3333333333333,59.791666666666664,300,60C341.6666666666667,60.208333333333336,358.3333333333333,-8.166666666666666,400,-9C441.6666666666667,-9.833333333333334,458.3333333333333,62.458333333333336,500,56C541.6666666666666,49.541666666666664,558.3333333333334,-38.333333333333336,600,-40C641.6666666666666,-41.666666666666664,658.3333333333334,39.875,700,48C741.6666666666666,56.125,779.1666666666666,9.208333333333332,800,-1" transform="matrix(1,0,0,1,0,165)"></path><path d="M10,10C28.75,10.833333333333334,60.416666666666664,18.166666666666668,100,14C139.58333333333334,9.833333333333332,158.33333333333331,-19.583333333333336,200,-10C241.66666666666669,-0.4166666666666661,258.3333333333333,59.791666666666664,300,60C341.6666666666667,60.208333333333336,358.3333333333333,-8.166666666666666,400,-9C441.6666666666667,-9.833333333333334,458.3333333333333,62.458333333333336,500,56C541.6666666666666,49.541666666666664,558.3333333333334,-38.333333333333336,600,-40C641.6666666666666,-41.666666666666664,658.3333333333334,39.875,700,48C741.6666666666666,56.125,779.1666666666666,9.208333333333332,800,-1" transform="matrix(1,0,0,1,0,110)"></path><path d="M10,10C28.75,10.833333333333334,60.416666666666664,18.166666666666668,100,14C139.58333333333334,9.833333333333332,158.33333333333331,-19.583333333333336,200,-10C241.66666666666669,-0.4166666666666661,258.3333333333333,59.791666666666664,300,60C341.6666666666667,60.208333333333336,358.3333333333333,-8.166666666666666,400,-9C441.6666666666667,-9.833333333333334,458.3333333333333,62.458333333333336,500,56C541.6666666666666,49.541666666666664,558.3333333333334,-38.333333333333336,600,-40C641.6666666666666,-41.666666666666664,658.3333333333334,39.875,700,48C741.6666666666666,56.125,779.1666666666666,9.208333333333332,800,-1" transform="matrix(1,0,0,1,0,55)"></path></g></svg>